<mxfile host="app.diagrams.net" agent="Mozilla/5.0 (X11; Ubuntu; Linux x86_64; rv:132.0) Gecko/20100101 Firefox/132.0" version="25.0.3">
  <diagram name="Page-1" id="onDuZXqgFQpSpZ1HEUd0">
    <mxGraphModel grid="1" page="1" gridSize="10" guides="1" tooltips="1" connect="1" arrows="1" fold="1" pageScale="1" pageWidth="2336" pageHeight="1654" math="0" shadow="0">
      <root>
        <mxCell id="0" />
        <mxCell id="1" parent="0" />
        <mxCell id="6PZJXgT8UqnJbSfWW2J0-363" style="edgeStyle=orthogonalEdgeStyle;rounded=0;orthogonalLoop=1;jettySize=auto;html=1;exitX=0.5;exitY=1;exitDx=0;exitDy=0;" edge="1" parent="1" source="6PZJXgT8UqnJbSfWW2J0-2" target="6PZJXgT8UqnJbSfWW2J0-6">
          <mxGeometry relative="1" as="geometry" />
        </mxCell>
        <mxCell id="6PZJXgT8UqnJbSfWW2J0-2" value="Start&lt;div&gt;POW_ID&lt;/div&gt;" style="ellipse;whiteSpace=wrap;html=1;aspect=fixed;" vertex="1" parent="1">
          <mxGeometry x="705" y="820" width="80" height="80" as="geometry" />
        </mxCell>
        <mxCell id="6PZJXgT8UqnJbSfWW2J0-5" value="" style="edgeStyle=orthogonalEdgeStyle;rounded=0;orthogonalLoop=1;jettySize=auto;html=1;" edge="1" parent="1" source="6PZJXgT8UqnJbSfWW2J0-6" target="6PZJXgT8UqnJbSfWW2J0-14">
          <mxGeometry relative="1" as="geometry" />
        </mxCell>
        <mxCell id="6PZJXgT8UqnJbSfWW2J0-6" value="Select WI" style="whiteSpace=wrap;html=1;aspect=fixed;fillColor=#f5f5f5;fontColor=#333333;strokeColor=#666666;dashed=1;" vertex="1" parent="1">
          <mxGeometry x="705" y="952.5" width="80" height="80" as="geometry" />
        </mxCell>
        <mxCell id="6PZJXgT8UqnJbSfWW2J0-346" style="edgeStyle=orthogonalEdgeStyle;rounded=0;orthogonalLoop=1;jettySize=auto;html=1;exitX=0.5;exitY=1;exitDx=0;exitDy=0;" edge="1" parent="1" source="6PZJXgT8UqnJbSfWW2J0-14" target="6PZJXgT8UqnJbSfWW2J0-376">
          <mxGeometry relative="1" as="geometry" />
        </mxCell>
        <mxCell id="6PZJXgT8UqnJbSfWW2J0-347" value="SHOB_RESTOW" style="edgeLabel;html=1;align=center;verticalAlign=middle;resizable=0;points=[];" connectable="0" vertex="1" parent="6PZJXgT8UqnJbSfWW2J0-346">
          <mxGeometry x="0.0943" y="-3" relative="1" as="geometry">
            <mxPoint as="offset" />
          </mxGeometry>
        </mxCell>
        <mxCell id="6PZJXgT8UqnJbSfWW2J0-348" style="edgeStyle=orthogonalEdgeStyle;rounded=0;orthogonalLoop=1;jettySize=auto;html=1;exitX=0;exitY=0.5;exitDx=0;exitDy=0;" edge="1" parent="1" source="6PZJXgT8UqnJbSfWW2J0-354">
          <mxGeometry relative="1" as="geometry">
            <mxPoint x="520" y="1115" as="targetPoint" />
          </mxGeometry>
        </mxCell>
        <mxCell id="6PZJXgT8UqnJbSfWW2J0-14" value="&lt;div align=&quot;center&quot;&gt;&lt;br&gt;&lt;/div&gt;&lt;div align=&quot;center&quot;&gt;Move kind ?&lt;br&gt;&lt;/div&gt;&lt;div&gt;&lt;br&gt;&lt;/div&gt;" style="rhombus;whiteSpace=wrap;html=1;fillColor=#f5f5f5;fontColor=#333333;strokeColor=#666666;dashed=1;" vertex="1" parent="1">
          <mxGeometry x="682.25" y="1080" width="125.5" height="70" as="geometry" />
        </mxCell>
        <mxCell id="6PZJXgT8UqnJbSfWW2J0-385" style="edgeStyle=orthogonalEdgeStyle;rounded=0;orthogonalLoop=1;jettySize=auto;html=1;exitX=0.5;exitY=1;exitDx=0;exitDy=0;" edge="1" parent="1" source="6PZJXgT8UqnJbSfWW2J0-16" target="6PZJXgT8UqnJbSfWW2J0-19">
          <mxGeometry relative="1" as="geometry" />
        </mxCell>
        <mxCell id="6PZJXgT8UqnJbSfWW2J0-16" value="QC1 -&amp;nbsp;&lt;br&gt;fetch()" style="whiteSpace=wrap;html=1;aspect=fixed;fillColor=#66B2FF;" vertex="1" parent="1">
          <mxGeometry x="705.5" y="1350" width="80" height="80" as="geometry" />
        </mxCell>
        <mxCell id="6PZJXgT8UqnJbSfWW2J0-360" style="edgeStyle=orthogonalEdgeStyle;rounded=0;orthogonalLoop=1;jettySize=auto;html=1;exitX=0.5;exitY=1;exitDx=0;exitDy=0;entryX=0;entryY=0.5;entryDx=0;entryDy=0;" edge="1" parent="1" source="6PZJXgT8UqnJbSfWW2J0-17" target="6PZJXgT8UqnJbSfWW2J0-352">
          <mxGeometry relative="1" as="geometry" />
        </mxCell>
        <mxCell id="6PZJXgT8UqnJbSfWW2J0-17" value="QC -&amp;nbsp;&lt;br&gt;put()" style="whiteSpace=wrap;html=1;aspect=fixed;fillColor=#66B2FF;" vertex="1" parent="1">
          <mxGeometry x="370" y="1193" width="80" height="80" as="geometry" />
        </mxCell>
        <mxCell id="6PZJXgT8UqnJbSfWW2J0-18" value="" style="edgeStyle=orthogonalEdgeStyle;rounded=0;orthogonalLoop=1;jettySize=auto;html=1;" edge="1" parent="1" source="6PZJXgT8UqnJbSfWW2J0-19" target="6PZJXgT8UqnJbSfWW2J0-29">
          <mxGeometry relative="1" as="geometry" />
        </mxCell>
        <mxCell id="6PZJXgT8UqnJbSfWW2J0-19" value="QC1 -&amp;nbsp;&lt;br&gt;put() " style="whiteSpace=wrap;html=1;aspect=fixed;fillColor=#66B2FF;" vertex="1" parent="1">
          <mxGeometry x="705.5" y="1482" width="80" height="80" as="geometry" />
        </mxCell>
        <mxCell id="6PZJXgT8UqnJbSfWW2J0-27" value="" style="edgeStyle=orthogonalEdgeStyle;rounded=0;orthogonalLoop=1;jettySize=auto;html=1;" edge="1" parent="1" source="6PZJXgT8UqnJbSfWW2J0-29" target="6PZJXgT8UqnJbSfWW2J0-35">
          <mxGeometry relative="1" as="geometry">
            <mxPoint x="745.0000000000002" y="1730" as="targetPoint" />
          </mxGeometry>
        </mxCell>
        <mxCell id="6PZJXgT8UqnJbSfWW2J0-28" value="No" style="edgeLabel;html=1;align=center;verticalAlign=middle;resizable=0;points=[];" connectable="0" vertex="1" parent="6PZJXgT8UqnJbSfWW2J0-27">
          <mxGeometry x="-0.4151" y="-5" relative="1" as="geometry">
            <mxPoint x="-10" y="3" as="offset" />
          </mxGeometry>
        </mxCell>
        <mxCell id="6PZJXgT8UqnJbSfWW2J0-390" style="edgeStyle=orthogonalEdgeStyle;rounded=0;orthogonalLoop=1;jettySize=auto;html=1;exitX=1;exitY=0.5;exitDx=0;exitDy=0;entryX=0;entryY=0.5;entryDx=0;entryDy=0;" edge="1" parent="1" source="6PZJXgT8UqnJbSfWW2J0-29" target="6PZJXgT8UqnJbSfWW2J0-31">
          <mxGeometry relative="1" as="geometry" />
        </mxCell>
        <mxCell id="6PZJXgT8UqnJbSfWW2J0-393" value="Yes" style="edgeLabel;html=1;align=center;verticalAlign=middle;resizable=0;points=[];" connectable="0" vertex="1" parent="6PZJXgT8UqnJbSfWW2J0-390">
          <mxGeometry x="-0.2636" y="3" relative="1" as="geometry">
            <mxPoint y="1" as="offset" />
          </mxGeometry>
        </mxCell>
        <mxCell id="6PZJXgT8UqnJbSfWW2J0-423" style="edgeStyle=orthogonalEdgeStyle;rounded=0;orthogonalLoop=1;jettySize=auto;html=1;exitX=0.5;exitY=1;exitDx=0;exitDy=0;entryX=0.5;entryY=1;entryDx=0;entryDy=0;" edge="1" parent="1" source="6PZJXgT8UqnJbSfWW2J0-29" target="6PZJXgT8UqnJbSfWW2J0-404">
          <mxGeometry relative="1" as="geometry" />
        </mxCell>
        <mxCell id="6PZJXgT8UqnJbSfWW2J0-29" value="&lt;div align=&quot;center&quot;&gt;Keep the&lt;/div&gt;&lt;div align=&quot;center&quot;&gt;&amp;nbsp;QC1 ?&lt;/div&gt;" style="rhombus;whiteSpace=wrap;html=1;fillColor=#f5f5f5;fontColor=#333333;strokeColor=#666666;dashed=1;" vertex="1" parent="1">
          <mxGeometry x="682.25" y="1630" width="125.5" height="63" as="geometry" />
        </mxCell>
        <mxCell id="6PZJXgT8UqnJbSfWW2J0-392" style="edgeStyle=orthogonalEdgeStyle;rounded=0;orthogonalLoop=1;jettySize=auto;html=1;exitX=1;exitY=0.5;exitDx=0;exitDy=0;" edge="1" parent="1" source="6PZJXgT8UqnJbSfWW2J0-31" target="6PZJXgT8UqnJbSfWW2J0-32">
          <mxGeometry relative="1" as="geometry" />
        </mxCell>
        <mxCell id="6PZJXgT8UqnJbSfWW2J0-31" value="QC1 -&amp;nbsp;&lt;br&gt;fetch() " style="whiteSpace=wrap;html=1;aspect=fixed;fillColor=#66B2FF;" vertex="1" parent="1">
          <mxGeometry x="862.75" y="1626.5" width="70" height="70" as="geometry" />
        </mxCell>
        <mxCell id="6PZJXgT8UqnJbSfWW2J0-405" style="edgeStyle=orthogonalEdgeStyle;rounded=0;orthogonalLoop=1;jettySize=auto;html=1;" edge="1" parent="1" source="6PZJXgT8UqnJbSfWW2J0-32" target="6PZJXgT8UqnJbSfWW2J0-404">
          <mxGeometry relative="1" as="geometry" />
        </mxCell>
        <mxCell id="6PZJXgT8UqnJbSfWW2J0-32" value="QC1 -&amp;nbsp;&lt;br&gt;put()" style="whiteSpace=wrap;html=1;aspect=fixed;fillColor=#66B2FF;" vertex="1" parent="1">
          <mxGeometry x="1010" y="1626.5" width="69.75" height="69.75" as="geometry" />
        </mxCell>
        <mxCell id="6PZJXgT8UqnJbSfWW2J0-421" style="edgeStyle=orthogonalEdgeStyle;rounded=0;orthogonalLoop=1;jettySize=auto;html=1;exitX=0.5;exitY=1;exitDx=0;exitDy=0;" edge="1" parent="1" source="6PZJXgT8UqnJbSfWW2J0-35" target="6PZJXgT8UqnJbSfWW2J0-41">
          <mxGeometry relative="1" as="geometry" />
        </mxCell>
        <mxCell id="6PZJXgT8UqnJbSfWW2J0-424" style="edgeStyle=orthogonalEdgeStyle;rounded=0;orthogonalLoop=1;jettySize=auto;html=1;exitX=1;exitY=0.5;exitDx=0;exitDy=0;" edge="1" parent="1" source="6PZJXgT8UqnJbSfWW2J0-35" target="6PZJXgT8UqnJbSfWW2J0-422">
          <mxGeometry relative="1" as="geometry" />
        </mxCell>
        <mxCell id="6PZJXgT8UqnJbSfWW2J0-35" value="Request &lt;br&gt;&lt;div&gt;QC2&lt;/div&gt;" style="whiteSpace=wrap;html=1;aspect=fixed;fillColor=#fff2cc;strokeColor=#d6b656;dashed=1;" vertex="1" parent="1">
          <mxGeometry x="715" y="1737" width="60" height="60" as="geometry" />
        </mxCell>
        <mxCell id="6PZJXgT8UqnJbSfWW2J0-467" style="edgeStyle=orthogonalEdgeStyle;rounded=0;orthogonalLoop=1;jettySize=auto;html=1;exitX=0.5;exitY=1;exitDx=0;exitDy=0;entryX=0.5;entryY=0;entryDx=0;entryDy=0;" edge="1" parent="1" source="6PZJXgT8UqnJbSfWW2J0-41" target="6PZJXgT8UqnJbSfWW2J0-465">
          <mxGeometry relative="1" as="geometry" />
        </mxCell>
        <mxCell id="6PZJXgT8UqnJbSfWW2J0-41" value="QC2 &lt;br&gt;fetch()" style="whiteSpace=wrap;html=1;aspect=fixed;fillColor=#66B2FF;" vertex="1" parent="1">
          <mxGeometry x="705" y="1850" width="80" height="80" as="geometry" />
        </mxCell>
        <mxCell id="6PZJXgT8UqnJbSfWW2J0-470" style="edgeStyle=orthogonalEdgeStyle;rounded=0;orthogonalLoop=1;jettySize=auto;html=1;exitX=1;exitY=0.5;exitDx=0;exitDy=0;" edge="1" parent="1" source="6PZJXgT8UqnJbSfWW2J0-43" target="6PZJXgT8UqnJbSfWW2J0-52">
          <mxGeometry relative="1" as="geometry" />
        </mxCell>
        <mxCell id="6PZJXgT8UqnJbSfWW2J0-43" value="QC2 -&amp;nbsp;&lt;br&gt;put()" style="whiteSpace=wrap;html=1;aspect=fixed;fillColor=#66B2FF;" vertex="1" parent="1">
          <mxGeometry x="702" y="2080" width="80" height="80" as="geometry" />
        </mxCell>
        <mxCell id="6PZJXgT8UqnJbSfWW2J0-51" style="edgeStyle=orthogonalEdgeStyle;rounded=0;orthogonalLoop=1;jettySize=auto;html=1;entryX=0.988;entryY=0.406;entryDx=0;entryDy=0;entryPerimeter=0;" edge="1" parent="1" source="6PZJXgT8UqnJbSfWW2J0-52" target="6PZJXgT8UqnJbSfWW2J0-6">
          <mxGeometry relative="1" as="geometry">
            <mxPoint x="1310" y="2130" as="targetPoint" />
            <Array as="points">
              <mxPoint x="1260" y="2120" />
              <mxPoint x="1260" y="985" />
            </Array>
          </mxGeometry>
        </mxCell>
        <mxCell id="6PZJXgT8UqnJbSfWW2J0-471" value="Yes" style="edgeLabel;html=1;align=center;verticalAlign=middle;resizable=0;points=[];" connectable="0" vertex="1" parent="6PZJXgT8UqnJbSfWW2J0-51">
          <mxGeometry x="-0.9431" relative="1" as="geometry">
            <mxPoint x="1" as="offset" />
          </mxGeometry>
        </mxCell>
        <mxCell id="6PZJXgT8UqnJbSfWW2J0-472" style="edgeStyle=orthogonalEdgeStyle;rounded=0;orthogonalLoop=1;jettySize=auto;html=1;" edge="1" parent="1" source="6PZJXgT8UqnJbSfWW2J0-52" target="6PZJXgT8UqnJbSfWW2J0-426">
          <mxGeometry relative="1" as="geometry" />
        </mxCell>
        <mxCell id="6PZJXgT8UqnJbSfWW2J0-473" value="No" style="edgeLabel;html=1;align=center;verticalAlign=middle;resizable=0;points=[];" connectable="0" vertex="1" parent="6PZJXgT8UqnJbSfWW2J0-472">
          <mxGeometry x="-0.8295" y="-3" relative="1" as="geometry">
            <mxPoint as="offset" />
          </mxGeometry>
        </mxCell>
        <mxCell id="6PZJXgT8UqnJbSfWW2J0-52" value="Still WI in Pow ?" style="rhombus;whiteSpace=wrap;html=1;fillColor=#f5f5f5;fontColor=#333333;strokeColor=#666666;dashed=1;" vertex="1" parent="1">
          <mxGeometry x="956.75" y="2073.5" width="106.5" height="93" as="geometry" />
        </mxCell>
        <mxCell id="6PZJXgT8UqnJbSfWW2J0-243" value="" style="rounded=0;whiteSpace=wrap;html=1;fillColor=none;dashed=1;" vertex="1" parent="1">
          <mxGeometry x="1284" y="1010" width="802.25" height="350" as="geometry" />
        </mxCell>
        <mxCell id="6PZJXgT8UqnJbSfWW2J0-251" value="&lt;b&gt;&lt;font style=&quot;font-size: 14px;&quot;&gt;Diagram title:&lt;/font&gt;&lt;/b&gt; &lt;font style=&quot;font-size: 14px;&quot;&gt;YARD process&lt;/font&gt;&lt;div&gt;&lt;span style=&quot;font-size: 14px;&quot;&gt;&lt;br&gt;&lt;/span&gt;&lt;div&gt;&lt;b&gt;&lt;font style=&quot;font-size: 14px;&quot;&gt;Description:&lt;/font&gt;&lt;/b&gt;&amp;nbsp;&lt;font style=&quot;font-size: 14px;&quot;&gt;&lt;span style=&quot;background-color: initial;&quot;&gt;process of remarshaling between two of the&lt;/span&gt;&lt;span style=&quot;background-color: initial;&quot;&gt; yard&amp;nbsp;&lt;/span&gt;&lt;/font&gt;&lt;/div&gt;&lt;/div&gt;" style="rounded=1;whiteSpace=wrap;html=1;fillColor=none;align=left;" vertex="1" parent="1">
          <mxGeometry x="1280" y="860" width="229" height="101" as="geometry" />
        </mxCell>
        <mxCell id="6PZJXgT8UqnJbSfWW2J0-252" value="&lt;div&gt;&lt;b&gt;&amp;nbsp;Legend Abbreviation:&amp;nbsp;&lt;/b&gt;&lt;/div&gt;&lt;div&gt;&lt;b&gt;&lt;span style=&quot;white-space: pre;&quot;&gt;&#x9;&lt;/span&gt;POW: &lt;/b&gt;Point Of Work&lt;/div&gt;&lt;b&gt;&lt;span style=&quot;white-space: pre;&quot;&gt;&#x9;&lt;/span&gt;QC&lt;/b&gt;: Quay Crane&lt;div&gt;&lt;b&gt;&lt;span style=&quot;white-space: pre;&quot;&gt;&#x9;&lt;/span&gt;ITV&lt;/b&gt;: Internal Transport Vehicle&lt;/div&gt;&lt;div&gt;&lt;b&gt;&lt;span style=&quot;white-space: pre;&quot;&gt;&#x9;&lt;/span&gt;YC&lt;/b&gt;: Yard Crane&lt;/div&gt;&lt;div&gt;&lt;b&gt;&lt;span style=&quot;white-space: pre;&quot;&gt;&#x9;&lt;/span&gt;WI&lt;/b&gt;: Work Instruction&lt;/div&gt;" style="text;html=1;align=left;verticalAlign=middle;whiteSpace=wrap;rounded=1;strokeColor=default;" vertex="1" parent="1">
          <mxGeometry x="2124" y="860" width="220" height="101" as="geometry" />
        </mxCell>
        <mxCell id="6PZJXgT8UqnJbSfWW2J0-253" value="" style="group" connectable="0" vertex="1" parent="1">
          <mxGeometry x="1527" y="860" width="592" height="101" as="geometry" />
        </mxCell>
        <mxCell id="6PZJXgT8UqnJbSfWW2J0-254" value="" style="rounded=1;whiteSpace=wrap;html=1;" vertex="1" parent="6PZJXgT8UqnJbSfWW2J0-253">
          <mxGeometry width="575" height="101" as="geometry" />
        </mxCell>
        <mxCell id="6PZJXgT8UqnJbSfWW2J0-255" value="" style="whiteSpace=wrap;html=1;aspect=fixed;fillColor=#66B2FF;" vertex="1" parent="6PZJXgT8UqnJbSfWW2J0-253">
          <mxGeometry x="12" y="6.936813186813197" width="22" height="22" as="geometry" />
        </mxCell>
        <mxCell id="6PZJXgT8UqnJbSfWW2J0-256" value="" style="whiteSpace=wrap;html=1;aspect=fixed;fillColor=#60a917;strokeColor=#2D7600;fontColor=#ffffff;" vertex="1" parent="6PZJXgT8UqnJbSfWW2J0-253">
          <mxGeometry x="12" y="35.79395604395603" width="22" height="22" as="geometry" />
        </mxCell>
        <mxCell id="6PZJXgT8UqnJbSfWW2J0-257" value="" style="whiteSpace=wrap;html=1;aspect=fixed;fillColor=#6a00ff;fontColor=#ffffff;strokeColor=#3700CC;" vertex="1" parent="6PZJXgT8UqnJbSfWW2J0-253">
          <mxGeometry x="12" y="65.76098901098902" width="22" height="22" as="geometry" />
        </mxCell>
        <mxCell id="6PZJXgT8UqnJbSfWW2J0-258" value="QC process&amp;nbsp;" style="text;html=1;align=left;verticalAlign=middle;whiteSpace=wrap;rounded=0;strokeColor=none;" vertex="1" parent="6PZJXgT8UqnJbSfWW2J0-253">
          <mxGeometry x="38" y="6.936813186813197" width="172" height="24.417582417582416" as="geometry" />
        </mxCell>
        <mxCell id="6PZJXgT8UqnJbSfWW2J0-259" value="ITV process&amp;nbsp;" style="text;html=1;align=left;verticalAlign=middle;whiteSpace=wrap;rounded=0;strokeColor=none;" vertex="1" parent="6PZJXgT8UqnJbSfWW2J0-253">
          <mxGeometry x="38" y="35.79395604395603" width="169" height="24.417582417582416" as="geometry" />
        </mxCell>
        <mxCell id="6PZJXgT8UqnJbSfWW2J0-260" value="YC process&amp;nbsp;" style="text;html=1;align=left;verticalAlign=middle;whiteSpace=wrap;rounded=0;strokeColor=none;" vertex="1" parent="6PZJXgT8UqnJbSfWW2J0-253">
          <mxGeometry x="38" y="65.76098901098902" width="169" height="24.417582417582416" as="geometry" />
        </mxCell>
        <mxCell id="6PZJXgT8UqnJbSfWW2J0-261" value="&lt;span style=&quot;text-align: left;&quot;&gt;&amp;nbsp;YC Resource&lt;/span&gt;&lt;span style=&quot;text-align: left; background-color: initial;&quot;&gt;&amp;nbsp;pool&lt;/span&gt;" style="sketch=0;outlineConnect=0;dashed=0;verticalLabelPosition=middle;verticalAlign=middle;align=left;html=1;fontSize=12;fontStyle=0;aspect=fixed;shape=mxgraph.aws4.resourceIcon;resIcon=mxgraph.aws4.queue;labelPosition=right;fillColor=#E1D5E7;" vertex="1" parent="6PZJXgT8UqnJbSfWW2J0-253">
          <mxGeometry x="120" y="7.769230769230774" width="22" height="22" as="geometry" />
        </mxCell>
        <mxCell id="6PZJXgT8UqnJbSfWW2J0-262" value="" style="whiteSpace=wrap;html=1;aspect=fixed;fillColor=#dae8fc;dashed=1;strokeColor=#6c8ebf;" vertex="1" parent="6PZJXgT8UqnJbSfWW2J0-253">
          <mxGeometry x="258" y="36.34890109890108" width="22" height="22" as="geometry" />
        </mxCell>
        <mxCell id="6PZJXgT8UqnJbSfWW2J0-263" value="&lt;span style=&quot;text-align: left;&quot;&gt;&amp;nbsp;ITV Resource&lt;/span&gt;&lt;span style=&quot;text-align: left; background-color: initial;&quot;&gt;&amp;nbsp;pool&lt;/span&gt;" style="sketch=0;outlineConnect=0;dashed=0;verticalLabelPosition=middle;verticalAlign=middle;align=left;html=1;fontSize=12;fontStyle=0;aspect=fixed;shape=mxgraph.aws4.resourceIcon;resIcon=mxgraph.aws4.queue;labelPosition=right;fillColor=#DAE8FC;" vertex="1" parent="6PZJXgT8UqnJbSfWW2J0-253">
          <mxGeometry x="120" y="35.79395604395603" width="22" height="22" as="geometry" />
        </mxCell>
        <mxCell id="6PZJXgT8UqnJbSfWW2J0-264" value="&lt;span style=&quot;text-align: left;&quot;&gt;&amp;nbsp;QC Resource&lt;/span&gt;&lt;span style=&quot;text-align: left; background-color: initial;&quot;&gt;&amp;nbsp;pool&lt;/span&gt;" style="sketch=0;outlineConnect=0;dashed=0;verticalLabelPosition=middle;verticalAlign=middle;align=left;html=1;fontSize=12;fontStyle=0;aspect=fixed;shape=mxgraph.aws4.resourceIcon;resIcon=mxgraph.aws4.queue;labelPosition=right;fillColor=#FFE6CC;" vertex="1" parent="6PZJXgT8UqnJbSfWW2J0-253">
          <mxGeometry x="120" y="65.76098901098902" width="22" height="22" as="geometry" />
        </mxCell>
        <mxCell id="6PZJXgT8UqnJbSfWW2J0-265" value="" style="whiteSpace=wrap;html=1;aspect=fixed;fillColor=#e1d5e7;dashed=1;strokeColor=#9673a6;labelPosition=right;verticalLabelPosition=middle;align=left;verticalAlign=middle;" vertex="1" parent="6PZJXgT8UqnJbSfWW2J0-253">
          <mxGeometry x="258" y="6.936813186813197" width="22" height="22" as="geometry" />
        </mxCell>
        <mxCell id="6PZJXgT8UqnJbSfWW2J0-266" value="" style="whiteSpace=wrap;html=1;aspect=fixed;fillColor=#fff2cc;strokeColor=#d6b656;dashed=1;" vertex="1" parent="6PZJXgT8UqnJbSfWW2J0-253">
          <mxGeometry x="258" y="65.76098901098902" width="22" height="22" as="geometry" />
        </mxCell>
        <mxCell id="6PZJXgT8UqnJbSfWW2J0-267" value="&amp;nbsp;YC request &amp;amp; release" style="text;html=1;align=left;verticalAlign=middle;whiteSpace=wrap;rounded=0;strokeColor=none;" vertex="1" parent="6PZJXgT8UqnJbSfWW2J0-253">
          <mxGeometry x="280" y="6.936813186813197" width="147" height="24.417582417582416" as="geometry" />
        </mxCell>
        <mxCell id="6PZJXgT8UqnJbSfWW2J0-268" value="&amp;nbsp;ITV request &amp;amp; release" style="text;html=1;align=left;verticalAlign=middle;whiteSpace=wrap;rounded=0;strokeColor=none;" vertex="1" parent="6PZJXgT8UqnJbSfWW2J0-253">
          <mxGeometry x="280" y="35.79395604395603" width="146" height="24.417582417582416" as="geometry" />
        </mxCell>
        <mxCell id="6PZJXgT8UqnJbSfWW2J0-269" value="&amp;nbsp;QC request &amp;amp; release" style="text;html=1;align=left;verticalAlign=middle;whiteSpace=wrap;rounded=0;strokeColor=none;" vertex="1" parent="6PZJXgT8UqnJbSfWW2J0-253">
          <mxGeometry x="280" y="65.76098901098902" width="139" height="24.417582417582416" as="geometry" />
        </mxCell>
        <mxCell id="6PZJXgT8UqnJbSfWW2J0-270" value="" style="rhombus;whiteSpace=wrap;html=1;fillColor=#f5f5f5;fontColor=#333333;strokeColor=#666666;dashed=1;" vertex="1" parent="6PZJXgT8UqnJbSfWW2J0-253">
          <mxGeometry x="414" y="6.139999999999986" width="24" height="24" as="geometry" />
        </mxCell>
        <mxCell id="6PZJXgT8UqnJbSfWW2J0-271" value="Test Condition" style="text;html=1;align=left;verticalAlign=middle;whiteSpace=wrap;rounded=0;strokeColor=none;" vertex="1" parent="6PZJXgT8UqnJbSfWW2J0-253">
          <mxGeometry x="445" y="5.72681318681316" width="147" height="24.417582417582416" as="geometry" />
        </mxCell>
        <mxCell id="6PZJXgT8UqnJbSfWW2J0-272" value="" style="whiteSpace=wrap;html=1;aspect=fixed;fillColor=#f5f5f5;fontColor=#333333;strokeColor=#666666;dashed=1;" vertex="1" parent="6PZJXgT8UqnJbSfWW2J0-253">
          <mxGeometry x="418" y="34.589999999999975" width="22" height="22" as="geometry" />
        </mxCell>
        <mxCell id="6PZJXgT8UqnJbSfWW2J0-273" value="&lt;span style=&quot;color: rgb(51, 51, 51); text-align: center;&quot;&gt;Logical&amp;nbsp;&lt;/span&gt;&lt;span style=&quot;color: rgb(51, 51, 51); text-align: center;&quot;&gt;Process&amp;nbsp;&lt;/span&gt;" style="text;html=1;align=left;verticalAlign=middle;whiteSpace=wrap;rounded=0;strokeColor=none;" vertex="1" parent="6PZJXgT8UqnJbSfWW2J0-253">
          <mxGeometry x="445" y="33.376813186813195" width="147" height="24.417582417582416" as="geometry" />
        </mxCell>
        <mxCell id="6PZJXgT8UqnJbSfWW2J0-274" value="" style="whiteSpace=wrap;html=1;aspect=fixed;fillColor=#647687;strokeColor=#314354;fontColor=#ffffff;" vertex="1" parent="6PZJXgT8UqnJbSfWW2J0-253">
          <mxGeometry x="418" y="66.97000000000003" width="22" height="22" as="geometry" />
        </mxCell>
        <mxCell id="6PZJXgT8UqnJbSfWW2J0-275" value="&lt;div style=&quot;text-align: center;&quot;&gt;&lt;span style=&quot;background-color: initial;&quot;&gt;&lt;font color=&quot;#333333&quot;&gt;Another Flow Diagram&lt;/font&gt;&lt;/span&gt;&lt;/div&gt;" style="text;html=1;align=left;verticalAlign=middle;whiteSpace=wrap;rounded=0;strokeColor=none;" vertex="1" parent="6PZJXgT8UqnJbSfWW2J0-253">
          <mxGeometry x="445" y="64.5568131868132" width="147" height="24.417582417582416" as="geometry" />
        </mxCell>
        <mxCell id="6PZJXgT8UqnJbSfWW2J0-276" value="&lt;b&gt;QC processes&lt;/b&gt;" style="text;html=1;align=center;verticalAlign=middle;whiteSpace=wrap;rounded=0;" vertex="1" parent="1">
          <mxGeometry x="1280" y="1099" width="140" height="30" as="geometry" />
        </mxCell>
        <mxCell id="6PZJXgT8UqnJbSfWW2J0-277" value="QC -&amp;nbsp;&lt;br&gt;fetch()" style="whiteSpace=wrap;html=1;aspect=fixed;fillColor=#66B2FF;" vertex="1" parent="1">
          <mxGeometry x="1436" y="1074" width="80" height="80" as="geometry" />
        </mxCell>
        <mxCell id="6PZJXgT8UqnJbSfWW2J0-278" value="QC -&amp;nbsp;&lt;br&gt;put()" style="whiteSpace=wrap;html=1;aspect=fixed;fillColor=#66B2FF;" vertex="1" parent="1">
          <mxGeometry x="1523.5" y="1074" width="80" height="80" as="geometry" />
        </mxCell>
        <mxCell id="6PZJXgT8UqnJbSfWW2J0-279" value="QC -&amp;nbsp;&lt;br&gt;get ready to put to ITV()" style="whiteSpace=wrap;html=1;aspect=fixed;fillColor=#66B2FF;" vertex="1" parent="1">
          <mxGeometry x="1612" y="1074" width="80" height="80" as="geometry" />
        </mxCell>
        <mxCell id="6PZJXgT8UqnJbSfWW2J0-280" value="QC -&amp;nbsp;&lt;br&gt;get ready to fetch from ITV()" style="whiteSpace=wrap;html=1;aspect=fixed;fillColor=#66B2FF;" vertex="1" parent="1">
          <mxGeometry x="1700.25" y="1074" width="80" height="80" as="geometry" />
        </mxCell>
        <mxCell id="6PZJXgT8UqnJbSfWW2J0-281" value="&lt;b&gt;ITV processes&lt;/b&gt;" style="text;html=1;align=center;verticalAlign=middle;whiteSpace=wrap;rounded=0;" vertex="1" parent="1">
          <mxGeometry x="1280" y="1196" width="140" height="30" as="geometry" />
        </mxCell>
        <mxCell id="6PZJXgT8UqnJbSfWW2J0-282" value="ITV - Carry()" style="whiteSpace=wrap;html=1;aspect=fixed;fillColor=#60a917;strokeColor=#2D7600;fontColor=#ffffff;" vertex="1" parent="1">
          <mxGeometry x="1436" y="1171" width="80" height="80" as="geometry" />
        </mxCell>
        <mxCell id="6PZJXgT8UqnJbSfWW2J0-283" value="ITV - get ready to fetch()" style="whiteSpace=wrap;html=1;aspect=fixed;fillColor=#60a917;strokeColor=#2D7600;fontColor=#ffffff;" vertex="1" parent="1">
          <mxGeometry x="1523.5" y="1171" width="80" height="80" as="geometry" />
        </mxCell>
        <mxCell id="6PZJXgT8UqnJbSfWW2J0-284" value="ITV - get ready to put()" style="whiteSpace=wrap;html=1;aspect=fixed;fillColor=#60a917;strokeColor=#2D7600;fontColor=#ffffff;" vertex="1" parent="1">
          <mxGeometry x="1612" y="1171" width="80" height="80" as="geometry" />
        </mxCell>
        <mxCell id="6PZJXgT8UqnJbSfWW2J0-285" value="ITV - get release from YC()" style="whiteSpace=wrap;html=1;aspect=fixed;fillColor=#60a917;fontColor=#ffffff;strokeColor=#2D7600;" vertex="1" parent="1">
          <mxGeometry x="1700.25" y="1173" width="78" height="78" as="geometry" />
        </mxCell>
        <mxCell id="6PZJXgT8UqnJbSfWW2J0-286" value="ITV - get release from QC()" style="whiteSpace=wrap;html=1;aspect=fixed;fillColor=#60a917;fontColor=#ffffff;strokeColor=#2D7600;" vertex="1" parent="1">
          <mxGeometry x="1786" y="1173" width="78" height="78" as="geometry" />
        </mxCell>
        <mxCell id="6PZJXgT8UqnJbSfWW2J0-287" value="&lt;b&gt;YC processes&lt;/b&gt;" style="text;html=1;align=center;verticalAlign=middle;whiteSpace=wrap;rounded=0;" vertex="1" parent="1">
          <mxGeometry x="1280" y="1288" width="140" height="30" as="geometry" />
        </mxCell>
        <mxCell id="6PZJXgT8UqnJbSfWW2J0-288" value="YC - get ready to fetch from ITV()" style="whiteSpace=wrap;html=1;aspect=fixed;fillColor=#6a00ff;fontColor=#ffffff;strokeColor=#3700CC;" vertex="1" parent="1">
          <mxGeometry x="1612" y="1268" width="80" height="80" as="geometry" />
        </mxCell>
        <mxCell id="6PZJXgT8UqnJbSfWW2J0-289" value="&lt;span style=&quot;font-weight: normal;&quot;&gt;YC&lt;/span&gt;&lt;div&gt;&amp;nbsp; &lt;span style=&quot;font-weight: normal;&quot;&gt;put()&lt;/span&gt;&amp;nbsp;&lt;/div&gt;" style="whiteSpace=wrap;html=1;aspect=fixed;fillColor=#6a00ff;fontColor=#ffffff;strokeColor=#3700CC;fontStyle=1" vertex="1" parent="1">
          <mxGeometry x="1436" y="1268" width="80" height="80" as="geometry" />
        </mxCell>
        <mxCell id="6PZJXgT8UqnJbSfWW2J0-290" value="YC&lt;div&gt;&amp;nbsp; fetch()&amp;nbsp;&lt;/div&gt;" style="whiteSpace=wrap;html=1;aspect=fixed;fillColor=#6a00ff;fontColor=#ffffff;strokeColor=#3700CC;" vertex="1" parent="1">
          <mxGeometry x="1524" y="1268" width="80" height="80" as="geometry" />
        </mxCell>
        <mxCell id="6PZJXgT8UqnJbSfWW2J0-291" value="YC - get ready to put to ITV()" style="whiteSpace=wrap;html=1;aspect=fixed;fillColor=#6a00ff;fontColor=#ffffff;strokeColor=#3700CC;" vertex="1" parent="1">
          <mxGeometry x="1700.25" y="1268" width="80" height="80" as="geometry" />
        </mxCell>
        <mxCell id="6PZJXgT8UqnJbSfWW2J0-292" value="&lt;b&gt;&lt;font style=&quot;font-size: 14px;&quot;&gt;Main Processes&lt;/font&gt;&lt;/b&gt;" style="text;html=1;align=center;verticalAlign=middle;whiteSpace=wrap;rounded=0;" vertex="1" parent="1">
          <mxGeometry x="1477.88" y="1019" width="221.25" height="30" as="geometry" />
        </mxCell>
        <mxCell id="6PZJXgT8UqnJbSfWW2J0-293" value="&lt;h1 style=&quot;margin-top: 0px;&quot;&gt;Note:&amp;nbsp;&lt;/h1&gt;&lt;p&gt;&lt;font color=&quot;#ff3333&quot;&gt;Ce n&#39;est pas une legend. ça c&#39;est juste pour vous, pour vous rappeler les processus principaux. il faut pas le copier sur les autres schémas ! .&amp;nbsp;&lt;/font&gt;&lt;/p&gt;" style="text;html=1;whiteSpace=wrap;overflow=hidden;rounded=0;" vertex="1" parent="1">
          <mxGeometry x="1885.25" y="1131" width="180" height="120" as="geometry" />
        </mxCell>
        <mxCell id="6PZJXgT8UqnJbSfWW2J0-349" value="SHOB_SHIFT" style="text;html=1;align=center;verticalAlign=middle;resizable=0;points=[];autosize=1;strokeColor=none;fillColor=none;" vertex="1" parent="1">
          <mxGeometry x="582.25" y="1091.5" width="100" height="30" as="geometry" />
        </mxCell>
        <mxCell id="6PZJXgT8UqnJbSfWW2J0-362" style="edgeStyle=orthogonalEdgeStyle;rounded=0;orthogonalLoop=1;jettySize=auto;html=1;entryX=0.5;entryY=1;entryDx=0;entryDy=0;" edge="1" parent="1" source="6PZJXgT8UqnJbSfWW2J0-351" target="6PZJXgT8UqnJbSfWW2J0-354">
          <mxGeometry relative="1" as="geometry" />
        </mxCell>
        <mxCell id="6PZJXgT8UqnJbSfWW2J0-351" value="&amp;nbsp;QC&amp;nbsp;&lt;div&gt;&amp;nbsp;Pool&amp;nbsp;&lt;/div&gt;&lt;div&gt;&amp;nbsp;IDLE&lt;/div&gt;" style="sketch=0;outlineConnect=0;strokeColor=#d79b00;fillColor=#ffe6cc;dashed=0;verticalLabelPosition=middle;verticalAlign=middle;align=left;html=1;fontSize=12;fontStyle=0;aspect=fixed;shape=mxgraph.aws4.resourceIcon;resIcon=mxgraph.aws4.queue;labelPosition=right;" vertex="1" parent="1">
          <mxGeometry x="510" y="1190" width="60" height="60" as="geometry" />
        </mxCell>
        <mxCell id="6PZJXgT8UqnJbSfWW2J0-361" style="edgeStyle=orthogonalEdgeStyle;rounded=0;orthogonalLoop=1;jettySize=auto;html=1;exitX=0.5;exitY=0;exitDx=0;exitDy=0;" edge="1" parent="1" source="6PZJXgT8UqnJbSfWW2J0-352" target="6PZJXgT8UqnJbSfWW2J0-351">
          <mxGeometry relative="1" as="geometry" />
        </mxCell>
        <mxCell id="6PZJXgT8UqnJbSfWW2J0-352" value="Release&amp;nbsp;&lt;div&gt;QC&lt;/div&gt;" style="whiteSpace=wrap;html=1;aspect=fixed;fillColor=#fff2cc;strokeColor=#d6b656;dashed=1;" vertex="1" parent="1">
          <mxGeometry x="510" y="1290" width="60" height="60" as="geometry" />
        </mxCell>
        <mxCell id="6PZJXgT8UqnJbSfWW2J0-355" value="" style="edgeStyle=orthogonalEdgeStyle;rounded=0;orthogonalLoop=1;jettySize=auto;html=1;exitX=0;exitY=0.5;exitDx=0;exitDy=0;" edge="1" parent="1" source="6PZJXgT8UqnJbSfWW2J0-14" target="6PZJXgT8UqnJbSfWW2J0-354">
          <mxGeometry relative="1" as="geometry">
            <mxPoint x="682" y="1115" as="sourcePoint" />
            <mxPoint x="510" y="1115" as="targetPoint" />
          </mxGeometry>
        </mxCell>
        <mxCell id="6PZJXgT8UqnJbSfWW2J0-357" style="edgeStyle=orthogonalEdgeStyle;rounded=0;orthogonalLoop=1;jettySize=auto;html=1;entryX=1;entryY=0.5;entryDx=0;entryDy=0;" edge="1" parent="1" source="6PZJXgT8UqnJbSfWW2J0-354" target="6PZJXgT8UqnJbSfWW2J0-356">
          <mxGeometry relative="1" as="geometry" />
        </mxCell>
        <mxCell id="6PZJXgT8UqnJbSfWW2J0-354" value="Request QC" style="whiteSpace=wrap;html=1;aspect=fixed;fillColor=#fff2cc;strokeColor=#d6b656;dashed=1;" vertex="1" parent="1">
          <mxGeometry x="510" y="1085" width="60" height="60" as="geometry" />
        </mxCell>
        <mxCell id="6PZJXgT8UqnJbSfWW2J0-358" style="edgeStyle=orthogonalEdgeStyle;rounded=0;orthogonalLoop=1;jettySize=auto;html=1;" edge="1" parent="1" source="6PZJXgT8UqnJbSfWW2J0-356">
          <mxGeometry relative="1" as="geometry">
            <mxPoint x="410" y="1190" as="targetPoint" />
          </mxGeometry>
        </mxCell>
        <mxCell id="6PZJXgT8UqnJbSfWW2J0-356" value="QC -&amp;nbsp;&lt;br&gt;fetch()" style="whiteSpace=wrap;html=1;aspect=fixed;fillColor=#66B2FF;" vertex="1" parent="1">
          <mxGeometry x="370" y="1075" width="80" height="80" as="geometry" />
        </mxCell>
        <mxCell id="6PZJXgT8UqnJbSfWW2J0-371" style="edgeStyle=orthogonalEdgeStyle;rounded=0;orthogonalLoop=1;jettySize=auto;html=1;exitX=0;exitY=0.5;exitDx=0;exitDy=0;" edge="1" parent="1" source="6PZJXgT8UqnJbSfWW2J0-376">
          <mxGeometry relative="1" as="geometry">
            <mxPoint x="725.5" y="1280" as="targetPoint" />
          </mxGeometry>
        </mxCell>
        <mxCell id="6PZJXgT8UqnJbSfWW2J0-383" style="edgeStyle=orthogonalEdgeStyle;rounded=0;orthogonalLoop=1;jettySize=auto;html=1;exitX=0.5;exitY=1;exitDx=0;exitDy=0;entryX=0.5;entryY=0;entryDx=0;entryDy=0;" edge="1" parent="1" source="6PZJXgT8UqnJbSfWW2J0-376" target="6PZJXgT8UqnJbSfWW2J0-16">
          <mxGeometry relative="1" as="geometry" />
        </mxCell>
        <mxCell id="6PZJXgT8UqnJbSfWW2J0-376" value="Request QC1" style="whiteSpace=wrap;html=1;aspect=fixed;fillColor=#fff2cc;strokeColor=#d6b656;dashed=1;" vertex="1" parent="1">
          <mxGeometry x="715.5" y="1250" width="60" height="60" as="geometry" />
        </mxCell>
        <mxCell id="6PZJXgT8UqnJbSfWW2J0-419" style="edgeStyle=orthogonalEdgeStyle;rounded=0;orthogonalLoop=1;jettySize=auto;html=1;" edge="1" parent="1" source="6PZJXgT8UqnJbSfWW2J0-404" target="6PZJXgT8UqnJbSfWW2J0-414">
          <mxGeometry relative="1" as="geometry" />
        </mxCell>
        <mxCell id="6PZJXgT8UqnJbSfWW2J0-404" value="Release&amp;nbsp;&lt;div&gt;QC1&lt;/div&gt;" style="whiteSpace=wrap;html=1;aspect=fixed;fillColor=#fff2cc;strokeColor=#d6b656;dashed=1;" vertex="1" parent="1">
          <mxGeometry x="1130" y="1631.38" width="60" height="60" as="geometry" />
        </mxCell>
        <mxCell id="6PZJXgT8UqnJbSfWW2J0-420" style="edgeStyle=orthogonalEdgeStyle;rounded=0;orthogonalLoop=1;jettySize=auto;html=1;entryX=1;entryY=0.5;entryDx=0;entryDy=0;" edge="1" parent="1" source="6PZJXgT8UqnJbSfWW2J0-414" target="6PZJXgT8UqnJbSfWW2J0-376">
          <mxGeometry relative="1" as="geometry" />
        </mxCell>
        <mxCell id="6PZJXgT8UqnJbSfWW2J0-414" value="QC1 Pool IDLE" style="sketch=0;outlineConnect=0;strokeColor=#FFB570;fillColor=#FFF2CC;dashed=0;verticalLabelPosition=top;verticalAlign=bottom;align=center;html=1;fontSize=12;fontStyle=0;aspect=fixed;shape=mxgraph.aws4.resourceIcon;resIcon=mxgraph.aws4.queue;labelPosition=center;movable=1;resizable=1;rotatable=1;deletable=1;editable=1;locked=0;connectable=1;" vertex="1" parent="1">
          <mxGeometry x="1130" y="1250" width="60" height="60" as="geometry" />
        </mxCell>
        <mxCell id="6PZJXgT8UqnJbSfWW2J0-422" value="QC2 Pool IDLE" style="sketch=0;outlineConnect=0;strokeColor=#FFB570;fillColor=#FFF2CC;dashed=0;verticalLabelPosition=top;verticalAlign=bottom;align=center;html=1;fontSize=12;fontStyle=0;aspect=fixed;shape=mxgraph.aws4.resourceIcon;resIcon=mxgraph.aws4.queue;labelPosition=center;movable=1;resizable=1;rotatable=1;deletable=1;editable=1;locked=0;connectable=1;" vertex="1" parent="1">
          <mxGeometry x="850" y="1737" width="60" height="60" as="geometry" />
        </mxCell>
        <mxCell id="6PZJXgT8UqnJbSfWW2J0-427" style="edgeStyle=orthogonalEdgeStyle;rounded=0;orthogonalLoop=1;jettySize=auto;html=1;" edge="1" parent="1" source="6PZJXgT8UqnJbSfWW2J0-426" target="6PZJXgT8UqnJbSfWW2J0-422">
          <mxGeometry relative="1" as="geometry" />
        </mxCell>
        <mxCell id="6PZJXgT8UqnJbSfWW2J0-426" value="Release&amp;nbsp;&lt;div&gt;QC&lt;/div&gt;" style="whiteSpace=wrap;html=1;aspect=fixed;fillColor=#fff2cc;strokeColor=#d6b656;dashed=1;" vertex="1" parent="1">
          <mxGeometry x="980" y="1737" width="60" height="60" as="geometry" />
        </mxCell>
        <mxCell id="6PZJXgT8UqnJbSfWW2J0-464" value="QC -&amp;nbsp;&lt;br&gt;carry()" style="whiteSpace=wrap;html=1;aspect=fixed;fillColor=#66B2FF;" vertex="1" parent="1">
          <mxGeometry x="1786" y="1074" width="80" height="80" as="geometry" />
        </mxCell>
        <mxCell id="6PZJXgT8UqnJbSfWW2J0-468" style="edgeStyle=orthogonalEdgeStyle;rounded=0;orthogonalLoop=1;jettySize=auto;html=1;exitX=0.5;exitY=1;exitDx=0;exitDy=0;entryX=0.5;entryY=0;entryDx=0;entryDy=0;" edge="1" parent="1" source="6PZJXgT8UqnJbSfWW2J0-465" target="6PZJXgT8UqnJbSfWW2J0-43">
          <mxGeometry relative="1" as="geometry" />
        </mxCell>
        <mxCell id="6PZJXgT8UqnJbSfWW2J0-465" value="QC2 -&amp;nbsp;&lt;br&gt;carry()" style="whiteSpace=wrap;html=1;aspect=fixed;fillColor=#66B2FF;" vertex="1" parent="1">
          <mxGeometry x="705.5" y="1970" width="80" height="80" as="geometry" />
        </mxCell>
      </root>
    </mxGraphModel>
  </diagram>
</mxfile>
